<?xml version="1.0" encoding="UTF-8"?>
<!-- Generated by Pixelmator Pro 4.0 -->
<svg width="3000" height="1200" viewBox="0 0 3000 1200" xmlns="http://www.w3.org/2000/svg">
    <text id="MonTrax" xml:space="preserve" x="129.090644" y="468" font-family="Helvetica Neue" font-size="639" font-weight="700" fill="#0c689e" letter-spacing="12.964102">MonTrax</text>
    <path id="Rectangle-arrondi" fill="none" stroke="#1a80b8" stroke-width="27" stroke-linecap="round" stroke-linejoin="round" d="M 130 942.5 C 130 1019.543701 192.456268 1082 269.5 1082 L 2735.5 1082 C 2812.543701 1082 2875 1019.543701 2875 942.5 L 2875 780.5 C 2875 703.456299 2812.543701 641 2735.5 641 L 269.5 641 C 192.456268 641 130 703.456299 130 780.5 Z"/>
    <path id="Rectangle-arrondi-copie-5" fill="none" stroke="#5aadd4" stroke-width="27" stroke-linecap="round" stroke-linejoin="round" d="M 1372 888.5 C 1372 945.661499 1418.338501 992 1475.5 992 L 1529.5 992 C 1586.661499 992 1633 945.661499 1633 888.5 L 1633 834.5 C 1633 777.338501 1586.661499 731 1529.5 731 L 1475.5 731 C 1418.338501 731 1372 777.338501 1372 834.5 Z"/>
    <path id="Rectangle-arrondi-copie-7" fill="none" stroke="#1a80b8" stroke-width="27" stroke-linecap="round" stroke-linejoin="round" d="M 1927 888.5 C 1927 945.661499 1973.338501 992 2030.5 992 L 2084.5 992 C 2141.661377 992 2188 945.661499 2188 888.5 L 2188 834.5 C 2188 777.338501 2141.661377 731 2084.5 731 L 2030.5 731 C 1973.338501 731 1927 777.338501 1927 834.5 Z"/>
    <path id="Rectangle-arrondi-copie-8" fill="none" stroke="#0c689e" stroke-width="27" stroke-linecap="round" stroke-linejoin="round" d="M 2485 888.5 C 2485 945.661499 2531.338623 992 2588.5 992 L 2642.5 992 C 2699.661377 992 2746 945.661499 2746 888.5 L 2746 834.5 C 2746 777.338501 2699.661377 731 2642.5 731 L 2588.5 731 C 2531.338623 731 2485 777.338501 2485 834.5 Z"/>
    <path id="Rectangle-arrondi-copie-6" fill="none" stroke="#a8d3ea" stroke-width="27" stroke-linecap="round" stroke-linejoin="round" d="M 814 888.5 C 814 945.661499 860.338501 992 917.5 992 L 971.5 992 C 1028.661499 992 1075 945.661499 1075 888.5 L 1075 834.5 C 1075 777.338501 1028.661499 731 971.5 731 L 917.5 731 C 860.338501 731 814 777.338501 814 834.5 Z"/>
    <path id="Rectangle-arrondi-copie-9" fill="none" stroke="#c9e4f2" stroke-width="27" stroke-linecap="round" stroke-linejoin="round" d="M 259 888.5 C 259 945.661499 305.338531 992 362.5 992 L 416.5 992 C 473.661469 992 520 945.661499 520 888.5 L 520 834.5 C 520 777.338501 473.661469 731 416.5 731 L 362.5 731 C 305.338531 731 259 777.338501 259 834.5 Z"/>
</svg>
